<svg width="512" height="512" viewBox="0 0 200 200" xmlns="http://www.w3.org/2000/svg">
  <!-- 渐变定义 -->
  <defs>
    <linearGradient id="nexusGradient" x1="0%" y1="0%" x2="100%" y2="100%">
      <stop offset="0%" style="stop-color:#0EA5E9;stop-opacity:1" />
      <stop offset="100%" style="stop-color:#6366F1;stop-opacity:1" />
    </linearGradient>
  </defs>

  <!-- 核心几何图形 - X 形状（透明背景） -->
  <g transform="translate(100, 100) rotate(45)" fill="url(#nexusGradient)">
    <path d="M 5,-5 L 68,-18 C 75,-21 78,-28 78,-43 L 78,-78 L 43,-78 C 28,-78 21,-75 18,-68 Z" />
    <path d="M 5,-5 L 68,-18 C 75,-21 78,-28 78,-43 L 78,-78 L 43,-78 C 28,-78 21,-75 18,-68 Z" transform="rotate(90)" />
    <path d="M 5,-5 L 68,-18 C 75,-21 78,-28 78,-43 L 78,-78 L 43,-78 C 28,-78 21,-75 18,-68 Z" transform="rotate(180)" />
    <path d="M 5,-5 L 68,-18 C 75,-21 78,-28 78,-43 L 78,-78 L 43,-78 C 28,-78 21,-75 18,-68 Z" transform="rotate(270)" />
  </g>
</svg>
