<svg viewBox="0 0 1243 1024" xmlns="http://www.w3.org/2000/svg">
  <path d="M1022.334537 293.083429a405.796571 405.796571 0 0 0-141.897143-209.993143 396.361143 396.361143 0 0 0-500.150857 11.702857 408.064 408.064 0 0 0-130.998857 211.529143A312.393143 312.393143 0 0 0 0.089966 615.277714a203.117714 203.117714 0 0 0 27.721143 108.763429c16.457143 26.185143 39.936 47.250286 67.803428 60.635428 42.788571 18.944 89.380571 27.794286 136.118857 25.819429h407.917715c9.728 0 19.382857-0.365714 28.818285-1.170286l29.696-2.340571 2.194286-30.208c0.877714-11.995429 2.706286-23.917714 5.266286-35.620572l10.605714-47.835428-48.054857 5.046857c-13.750857 1.462857-27.501714 1.974857-41.325714 1.462857l-35.913143-1.316571v1.462857H231.952823a195.803429 195.803429 0 0 1-74.532572-12.726857 70.217143 70.217143 0 0 1-48.420571-72.118857 212.114286 212.114286 0 0 1 201.801143-204.8h30.500571l3.730286-30.793143a270.628571 270.628571 0 0 1 4.827429-29.257143l7.314285-25.6a290.523429 290.523429 0 0 1 555.373715-17.773714l7.972571 22.820571 23.771429 0.658286c11.702857 0.292571 23.186286 2.340571 34.230857 5.924571l61.878857 20.187429-18.066286-63.414857z" fill="currentColor"/>
  <path d="M681.196251 156.379429l-10.166857 0.804571a312.027429 312.027429 0 0 0-277.504 244.589714l-2.925714 13.312 45.860571 35.035429 16.530286 13.750857 27.355429 21.942857 6.436571-35.035428a245.028571 245.028571 0 0 1 229.961143-202.605715l43.885714-1.974857-79.433143-89.819428z m393.508572 538.697142a141.897143 141.897143 0 0 0 39.789714-98.962285 138.971429 138.971429 0 1 0-277.942857 0c-0.146286 36.937143 14.189714 72.411429 39.789714 98.962285a260.096 260.096 0 0 0-157.988571 241.371429c0 14.555429 1.170286 29.110857 3.584 43.446857l2.925714 17.627429h501.394286l2.925714-17.627429c2.340571-14.336 3.584-28.891429 3.584-43.446857a260.096 260.096 0 0 0-157.915428-241.371429h-0.146286z" fill="currentColor"/>
</svg>
