<svg viewBox="0 0 1024 1024" xmlns="http://www.w3.org/2000/svg">
  <path d="M1002.180546 496.408582a188.248782 188.248782 0 0 0 7.465111-125.712477 191.234826 191.234826 0 0 0-101.141595-119.612414c-8.275609-3.967174-14.205041-11.304312-15.058197-18.684108a189.016622 189.016622 0 0 0-75.546927-131.343303 188.888648 188.888648 0 0 0-145.718975-34.76609c-8.104978 1.194418-17.788294-2.602125-25.466695-10.323183C610.582129 19.878525 562.762758 0 512 0S413.375213 19.878525 377.286732 55.967007c-7.721058 7.763716-17.532347 11.602916-25.509352 10.323183a189.144595 189.144595 0 0 0-145.676318 34.76609 188.931306 188.931306 0 0 0-75.589585 131.343303c-0.853156 7.337138-6.739929 14.674276-15.015539 18.684108A191.405457 191.405457 0 0 0 14.311685 370.696105c-11.986836 41.847282-9.384712 85.315559 7.465112 125.712477 4.265778 10.195209 4.265778 20.987628 0 31.182836a188.248782 188.248782 0 0 0-7.465112 125.712477 191.362799 191.362799 0 0 0 101.184253 119.655072c8.147636 3.924516 14.162383 11.432285 15.015539 18.684107a189.101937 189.101937 0 0 0 75.546927 131.343304 189.144595 189.144595 0 0 0 145.63366 34.76609c8.019663-1.279733 17.788294 2.602125 25.509352 10.280525 36.088482 36.131139 83.95051 55.967007 134.713268 55.967007s98.624787-19.878525 134.713269-55.967007c7.721058-7.763716 17.575005-11.944178 25.466694-10.323183a189.656488 189.656488 0 0 0 145.718975-34.76609 189.016622 189.016622 0 0 0 75.589586-131.385961c0.853156-7.209165 6.867903-14.716934 15.015538-18.64145a191.490773 191.490773 0 0 0 101.184253-119.655072c11.986836-41.804624 9.384712-85.315559-7.465111-125.712476a39.586419 39.586419 0 0 1 0-31.182837zM277.382212 597.208915a63.986669 63.986669 0 1 1 0.042658-128.015997A63.986669 63.986669 0 0 1 277.382212 597.208915z m170.631119-383.920017a63.986669 63.986669 0 1 1-0.042658 128.015997A63.986669 63.986669 0 0 1 448.013331 213.288898z m0 597.208915a63.986669 63.986669 0 1 1 0.042657-128.015997A63.986669 63.986669 0 0 1 448.013331 810.497813z m85.315559-255.946678a63.986669 63.986669 0 1 1 0.042658-128.015996A63.986669 63.986669 0 0 1 533.32889 554.551135z m213.288898 85.315559a63.986669 63.986669 0 1 1 0.042658-128.015996A63.986669 63.986669 0 0 1 746.617788 639.866694z" fill="currentColor"/>
</svg>
