<svg viewBox="0 0 1024 1024" xmlns="http://www.w3.org/2000/svg">
  <path d="M554.6496 85.3504a42.6496 42.6496 0 0 0-85.2992 0V256a42.6496 42.6496 0 1 0 85.2992 0V85.3504zM477.696 427.52a42.6496 42.6496 0 0 0-50.176 50.176l85.2992 426.6496a42.6496 42.6496 0 0 0 77.312 15.36l56.5248-84.736 91.136 91.1872a42.6496 42.6496 0 0 0 60.416 0l128-128a42.6496 42.6496 0 0 0 0-60.3136l-91.2384-91.1872 84.6848-56.4736a42.6496 42.6496 0 0 0-15.3088-77.312L477.696 427.52z m98.6112 359.1168l-52.5824-262.912 262.912 52.5824-42.2912 28.16a42.6496 42.6496 0 0 0-6.5024 65.6896L835.584 768 768 835.6864l-97.792-97.8432a42.6496 42.6496 0 0 0-65.6896 6.5024l-28.2112 42.2912zM843.8784 180.1216a42.6496 42.6496 0 0 1 0 60.3648l-120.6784 120.6784a42.6496 42.6496 0 1 1-60.3648-60.3648l120.6784-120.6784a42.6496 42.6496 0 0 1 60.3648 0zM361.1648 723.2a42.6496 42.6496 0 1 0-60.3648-60.3648l-120.6784 120.6784a42.6496 42.6496 0 1 0 60.3648 60.3648l120.6784-120.6784zM42.6496 512c0-23.552 19.0976-42.6496 42.7008-42.6496H256a42.6496 42.6496 0 1 1 0 85.2992H85.3504A42.6496 42.6496 0 0 1 42.6496 512zM240.4864 180.1216a42.6496 42.6496 0 0 0-60.3648 60.3648l120.6784 120.6784a42.6496 42.6496 0 0 0 60.3648-60.3648L240.4864 180.1216z" fill="currentColor"/>
</svg>
