<svg viewBox="0 0 1024 1024" xmlns="http://www.w3.org/2000/svg">
  <path d="M401.773714 492.763429c-31.451429-51.2-44.032-108.763429-44.032-172.763429C357.668571 140.8 496.274286 0 672.548571 0 848.896 0 987.428571 140.8 987.428571 320S848.896 640 672.548571 640c-69.266286 0-125.878857-19.163429-182.564571-57.563429l-144.822857 147.163429 69.266286 70.436571-88.210286 89.526858-69.266286-70.363429-44.032 44.836571 69.266286 70.363429L193.974857 1024 36.571429 863.963429l365.202285-371.126858zM672.548571 128c-107.008 0-188.854857 83.236571-188.854857 192S565.540571 512 672.548571 512c107.081143 0 188.928-83.236571 188.928-192S773.339429 128 672.548571 128z" fill="currentColor"/>
</svg>
